<mxfile host="app.diagrams.net" modified="2021-04-02T05:15:27.201Z" agent="5.0 (Macintosh; Intel Mac OS X 10_13_6) AppleWebKit/605.1.15 (KHTML, like Gecko) Version/13.1.2 Safari/605.1.15" etag="6bppyDSpZ14KS0U_oHfn" version="14.5.4" type="github">
  <diagram id="DNjFaCcENhAwe2-UgSe2" name="Page-1">
    <mxGraphModel dx="916" dy="840" grid="1" gridSize="10" guides="1" tooltips="1" connect="0" arrows="1" fold="1" page="1" pageScale="1" pageWidth="1169" pageHeight="827" math="0" shadow="0">
      <root>
        <mxCell id="0" />
        <mxCell id="1" parent="0" />
        <mxCell id="RrKAQk9WSgDsEkspCCAe-52" value="" style="group" parent="1" vertex="1" connectable="0">
          <mxGeometry x="332.5" y="350" width="275" height="205" as="geometry" />
        </mxCell>
        <mxCell id="8OU9jWKdstNd1OK4Vplz-22" value="" style="endArrow=none;dashed=1;html=1;dashPattern=1 2;strokeWidth=2;fontSize=16;fontColor=#3333FF;strokeColor=#FF0000;" edge="1" parent="RrKAQk9WSgDsEkspCCAe-52">
          <mxGeometry width="50" height="50" relative="1" as="geometry">
            <mxPoint x="117.85714285714286" y="59.516129032258064" as="sourcePoint" />
            <mxPoint x="117.5" y="100" as="targetPoint" />
          </mxGeometry>
        </mxCell>
        <mxCell id="RrKAQk9WSgDsEkspCCAe-29" value="" style="endArrow=none;html=1;strokeWidth=2;fontColor=#3333FF;strokeColor=#3333FF;" parent="RrKAQk9WSgDsEkspCCAe-52" edge="1">
          <mxGeometry width="50" height="50" relative="1" as="geometry">
            <mxPoint y="158.70967741935482" as="sourcePoint" />
            <mxPoint x="130.95238095238096" y="158.70967741935482" as="targetPoint" />
          </mxGeometry>
        </mxCell>
        <mxCell id="RrKAQk9WSgDsEkspCCAe-30" value="" style="endArrow=none;html=1;strokeWidth=2;strokeColor=#3333FF;" parent="RrKAQk9WSgDsEkspCCAe-52" edge="1">
          <mxGeometry width="50" height="50" relative="1" as="geometry">
            <mxPoint x="130.95238095238096" y="158.70967741935482" as="sourcePoint" />
            <mxPoint x="261.9047619047619" y="158.70967741935482" as="targetPoint" />
          </mxGeometry>
        </mxCell>
        <mxCell id="RrKAQk9WSgDsEkspCCAe-32" value="" style="endArrow=none;html=1;strokeWidth=2;strokeColor=#3333FF;" parent="RrKAQk9WSgDsEkspCCAe-52" edge="1">
          <mxGeometry width="50" height="50" relative="1" as="geometry">
            <mxPoint x="130.95238095238096" y="171.93548387096774" as="sourcePoint" />
            <mxPoint x="130.95238095238096" y="158.70967741935482" as="targetPoint" />
          </mxGeometry>
        </mxCell>
        <mxCell id="RrKAQk9WSgDsEkspCCAe-33" value="Junction" style="text;html=1;strokeColor=none;fillColor=none;align=center;verticalAlign=middle;whiteSpace=wrap;rounded=0;fontColor=#3333FF;fontSize=16;" parent="RrKAQk9WSgDsEkspCCAe-52" vertex="1">
          <mxGeometry x="104.76190476190477" y="178.54838709677418" width="52.38095238095239" height="26.451612903225808" as="geometry" />
        </mxCell>
        <mxCell id="RrKAQk9WSgDsEkspCCAe-34" value="" style="endArrow=none;html=1;strokeColor=#3333FF;strokeWidth=2;fontSize=16;fontColor=#3333FF;" parent="RrKAQk9WSgDsEkspCCAe-52" edge="1">
          <mxGeometry width="50" height="50" relative="1" as="geometry">
            <mxPoint x="26.190476190476193" y="150" as="sourcePoint" />
            <mxPoint x="144.04761904761907" y="150" as="targetPoint" />
          </mxGeometry>
        </mxCell>
        <mxCell id="RrKAQk9WSgDsEkspCCAe-37" value="" style="endArrow=none;dashed=1;html=1;dashPattern=1 2;strokeWidth=2;fontSize=16;fontColor=#3333FF;strokeColor=#FF0000;" parent="RrKAQk9WSgDsEkspCCAe-52" edge="1">
          <mxGeometry width="50" height="50" relative="1" as="geometry">
            <mxPoint x="130.95238095238096" y="59.516129032258064" as="sourcePoint" />
            <mxPoint x="130.95238095238096" y="158.70967741935482" as="targetPoint" />
          </mxGeometry>
        </mxCell>
        <mxCell id="RrKAQk9WSgDsEkspCCAe-39" value="" style="endArrow=none;html=1;strokeWidth=2;fontSize=16;fontColor=#3333FF;strokeColor=#3333FF;" parent="RrKAQk9WSgDsEkspCCAe-52" edge="1">
          <mxGeometry width="50" height="50" relative="1" as="geometry">
            <mxPoint x="87.49714285714286" y="118" as="sourcePoint" />
            <mxPoint x="205.3542857142857" y="118" as="targetPoint" />
          </mxGeometry>
        </mxCell>
        <mxCell id="RrKAQk9WSgDsEkspCCAe-40" value="" style="endArrow=none;html=1;strokeColor=#3333FF;strokeWidth=2;fontSize=16;fontColor=#3333FF;" parent="RrKAQk9WSgDsEkspCCAe-52" edge="1">
          <mxGeometry width="50" height="50" relative="1" as="geometry">
            <mxPoint x="39.280952380952385" y="142" as="sourcePoint" />
            <mxPoint x="157.13809523809525" y="142" as="targetPoint" />
          </mxGeometry>
        </mxCell>
        <mxCell id="RrKAQk9WSgDsEkspCCAe-41" value="" style="endArrow=none;html=1;strokeColor=#3333FF;strokeWidth=2;fontSize=16;fontColor=#3333FF;" parent="RrKAQk9WSgDsEkspCCAe-52" edge="1">
          <mxGeometry width="50" height="50" relative="1" as="geometry">
            <mxPoint x="57.50380952380954" y="134" as="sourcePoint" />
            <mxPoint x="175.3609523809524" y="134" as="targetPoint" />
          </mxGeometry>
        </mxCell>
        <mxCell id="RrKAQk9WSgDsEkspCCAe-42" value="" style="endArrow=none;html=1;strokeWidth=2;fontSize=16;fontColor=#3333FF;strokeColor=#3333FF;" parent="RrKAQk9WSgDsEkspCCAe-52" edge="1">
          <mxGeometry width="50" height="50" relative="1" as="geometry">
            <mxPoint x="72.02190476190478" y="126" as="sourcePoint" />
            <mxPoint x="189.87904761904764" y="126" as="targetPoint" />
          </mxGeometry>
        </mxCell>
        <mxCell id="RrKAQk9WSgDsEkspCCAe-48" value="" style="endArrow=none;dashed=1;html=1;dashPattern=1 2;strokeWidth=2;fontSize=16;fontColor=#3333FF;strokeColor=#3333FF;" parent="RrKAQk9WSgDsEkspCCAe-52" edge="1">
          <mxGeometry width="50" height="50" relative="1" as="geometry">
            <mxPoint x="26.190476190476193" y="66.12903225806451" as="sourcePoint" />
            <mxPoint x="26.190476190476193" y="158.70967741935482" as="targetPoint" />
          </mxGeometry>
        </mxCell>
        <mxCell id="RrKAQk9WSgDsEkspCCAe-49" value="" style="endArrow=none;dashed=1;html=1;dashPattern=1 2;strokeWidth=2;fontSize=16;fontColor=#3333FF;strokeColor=#3333FF;" parent="RrKAQk9WSgDsEkspCCAe-52" edge="1">
          <mxGeometry width="50" height="50" relative="1" as="geometry">
            <mxPoint x="235.71428571428572" y="66.12903225806451" as="sourcePoint" />
            <mxPoint x="235.71428571428572" y="158.70967741935482" as="targetPoint" />
          </mxGeometry>
        </mxCell>
        <mxCell id="8OU9jWKdstNd1OK4Vplz-21" value="" style="endArrow=none;dashed=1;html=1;dashPattern=1 2;strokeWidth=2;fontSize=16;fontColor=#3333FF;strokeColor=#FF0000;" edge="1" parent="RrKAQk9WSgDsEkspCCAe-52">
          <mxGeometry width="50" height="50" relative="1" as="geometry">
            <mxPoint x="144.04761904761907" y="59.516129032258064" as="sourcePoint" />
            <mxPoint x="144.04761904761892" y="146.80645161290323" as="targetPoint" />
          </mxGeometry>
        </mxCell>
        <mxCell id="8OU9jWKdstNd1OK4Vplz-23" value="" style="shape=curlyBracket;whiteSpace=wrap;html=1;rounded=1;fillColor=none;fontSize=16;fontColor=#3333FF;rotation=90;" vertex="1" parent="RrKAQk9WSgDsEkspCCAe-52">
          <mxGeometry x="119.16666666666667" y="46.29032258064516" width="9.166666666666668" height="13.225806451612904" as="geometry" />
        </mxCell>
        <mxCell id="8OU9jWKdstNd1OK4Vplz-24" value="" style="shape=curlyBracket;whiteSpace=wrap;html=1;rounded=1;fillColor=none;fontSize=16;fontColor=#3333FF;rotation=90;" vertex="1" parent="RrKAQk9WSgDsEkspCCAe-52">
          <mxGeometry x="133.57142857142858" y="46.29032258064516" width="9.166666666666668" height="13.225806451612904" as="geometry" />
        </mxCell>
        <mxCell id="RrKAQk9WSgDsEkspCCAe-50" value="" style="shape=curlyBracket;whiteSpace=wrap;html=1;rounded=1;fillColor=none;fontSize=16;fontColor=#3333FF;rotation=-180;" parent="RrKAQk9WSgDsEkspCCAe-52" vertex="1">
          <mxGeometry x="238.5" y="100" width="26.19" height="57" as="geometry" />
        </mxCell>
        <mxCell id="8OU9jWKdstNd1OK4Vplz-25" value="&lt;span style=&quot;color: rgb(0, 0, 0); font-family: helvetica; font-size: 16px; font-style: normal; font-weight: normal; letter-spacing: normal; text-align: center; text-indent: 0px; text-transform: none; word-spacing: 0px; background-color: rgb(248, 249, 250); text-decoration: none; display: inline; float: none;&quot;&gt;ancher length&lt;/span&gt;" style="text;whiteSpace=wrap;html=1;" vertex="1" parent="RrKAQk9WSgDsEkspCCAe-52">
          <mxGeometry x="78.57142857142858" y="6.612903225806452" width="157.14285714285717" height="39.677419354838705" as="geometry" />
        </mxCell>
        <mxCell id="8OU9jWKdstNd1OK4Vplz-37" value="" style="endArrow=none;html=1;strokeWidth=2;fontSize=16;fontColor=#3333FF;strokeColor=#3333FF;" edge="1" parent="RrKAQk9WSgDsEkspCCAe-52">
          <mxGeometry width="50" height="50" relative="1" as="geometry">
            <mxPoint x="104.75714285714287" y="110" as="sourcePoint" />
            <mxPoint x="222.61428571428564" y="110" as="targetPoint" />
          </mxGeometry>
        </mxCell>
        <mxCell id="8OU9jWKdstNd1OK4Vplz-38" value="" style="endArrow=none;html=1;strokeWidth=2;fontSize=16;fontColor=#3333FF;strokeColor=#3333FF;" edge="1" parent="RrKAQk9WSgDsEkspCCAe-52">
          <mxGeometry width="50" height="50" relative="1" as="geometry">
            <mxPoint x="117.85714285714289" y="102.20999999999998" as="sourcePoint" />
            <mxPoint x="235.71428571428567" y="102.20999999999998" as="targetPoint" />
          </mxGeometry>
        </mxCell>
        <mxCell id="RrKAQk9WSgDsEkspCCAe-97" value="" style="group" parent="1" vertex="1" connectable="0">
          <mxGeometry x="650" y="240" width="330" height="100" as="geometry" />
        </mxCell>
        <mxCell id="RrKAQk9WSgDsEkspCCAe-4" value="" style="group" parent="RrKAQk9WSgDsEkspCCAe-97" vertex="1" connectable="0">
          <mxGeometry y="69.6969696969697" width="330" height="30.303030303030305" as="geometry" />
        </mxCell>
        <mxCell id="RrKAQk9WSgDsEkspCCAe-5" value="&lt;b&gt;&lt;font color=&quot;#ffffff&quot;&gt;Downstream exon&lt;/font&gt;&lt;/b&gt;" style="rounded=0;whiteSpace=wrap;html=1;fillColor=#3333FF;" parent="RrKAQk9WSgDsEkspCCAe-4" vertex="1">
          <mxGeometry x="220" width="110" height="30.303030303030305" as="geometry" />
        </mxCell>
        <mxCell id="RrKAQk9WSgDsEkspCCAe-6" value="&lt;b&gt;&lt;font color=&quot;#ffffff&quot;&gt;Upstream exon&lt;/font&gt;&lt;/b&gt;" style="rounded=0;whiteSpace=wrap;html=1;fillColor=#3333FF;" parent="RrKAQk9WSgDsEkspCCAe-4" vertex="1">
          <mxGeometry width="110" height="30.303030303030305" as="geometry" />
        </mxCell>
        <mxCell id="RrKAQk9WSgDsEkspCCAe-7" value="&lt;b&gt;&lt;font color=&quot;#ffffff&quot;&gt;Skipped Exon&lt;/font&gt;&lt;/b&gt;" style="rounded=0;whiteSpace=wrap;html=1;fillColor=#FF6666;" parent="RrKAQk9WSgDsEkspCCAe-4" vertex="1">
          <mxGeometry x="110" width="110" height="30.303030303030305" as="geometry" />
        </mxCell>
        <mxCell id="RrKAQk9WSgDsEkspCCAe-27" value="&lt;font face=&quot;Comic Sans MS&quot; color=&quot;#ff6666&quot;&gt;&lt;span style=&quot;font-size: 19px&quot;&gt;I&lt;/span&gt;&lt;/font&gt;" style="text;html=1;strokeColor=none;fillColor=none;align=center;verticalAlign=middle;whiteSpace=wrap;rounded=0;" parent="RrKAQk9WSgDsEkspCCAe-97" vertex="1">
          <mxGeometry x="140" width="40" height="20.202020202020204" as="geometry" />
        </mxCell>
        <mxCell id="8OU9jWKdstNd1OK4Vplz-8" value="" style="endArrow=none;html=1;strokeWidth=2;fontSize=16;fontColor=#3333FF;strokeColor=#FF0000;" edge="1" parent="RrKAQk9WSgDsEkspCCAe-97">
          <mxGeometry width="50" height="50" relative="1" as="geometry">
            <mxPoint x="60" y="60" as="sourcePoint" />
            <mxPoint x="150" y="60" as="targetPoint" />
          </mxGeometry>
        </mxCell>
        <mxCell id="8OU9jWKdstNd1OK4Vplz-9" value="" style="endArrow=none;html=1;strokeWidth=2;fontSize=16;fontColor=#3333FF;strokeColor=#FF0000;" edge="1" parent="RrKAQk9WSgDsEkspCCAe-97">
          <mxGeometry width="50" height="50" relative="1" as="geometry">
            <mxPoint x="100" y="49.5" as="sourcePoint" />
            <mxPoint x="190" y="49.5" as="targetPoint" />
          </mxGeometry>
        </mxCell>
        <mxCell id="8OU9jWKdstNd1OK4Vplz-10" value="" style="endArrow=none;html=1;strokeWidth=2;fontSize=16;fontColor=#3333FF;strokeColor=#FF0000;" edge="1" parent="RrKAQk9WSgDsEkspCCAe-97">
          <mxGeometry width="50" height="50" relative="1" as="geometry">
            <mxPoint x="170" y="60" as="sourcePoint" />
            <mxPoint x="260" y="60" as="targetPoint" />
          </mxGeometry>
        </mxCell>
        <mxCell id="8OU9jWKdstNd1OK4Vplz-11" value="" style="endArrow=none;html=1;strokeWidth=2;fontSize=16;fontColor=#3333FF;strokeColor=#FF0000;" edge="1" parent="RrKAQk9WSgDsEkspCCAe-97">
          <mxGeometry width="50" height="50" relative="1" as="geometry">
            <mxPoint x="150" y="40" as="sourcePoint" />
            <mxPoint x="240" y="40" as="targetPoint" />
          </mxGeometry>
        </mxCell>
        <mxCell id="8OU9jWKdstNd1OK4Vplz-12" value="" style="endArrow=none;html=1;strokeWidth=2;fontSize=16;fontColor=#3333FF;strokeColor=#FF0000;" edge="1" parent="RrKAQk9WSgDsEkspCCAe-97">
          <mxGeometry width="50" height="50" relative="1" as="geometry">
            <mxPoint x="90" y="30" as="sourcePoint" />
            <mxPoint x="180" y="30" as="targetPoint" />
          </mxGeometry>
        </mxCell>
        <mxCell id="8OU9jWKdstNd1OK4Vplz-13" value="" style="endArrow=none;html=1;strokeWidth=2;fontSize=16;fontColor=#3333FF;strokeColor=#FF0000;" edge="1" parent="RrKAQk9WSgDsEkspCCAe-97">
          <mxGeometry width="50" height="50" relative="1" as="geometry">
            <mxPoint x="50" y="40" as="sourcePoint" />
            <mxPoint x="140" y="40" as="targetPoint" />
          </mxGeometry>
        </mxCell>
        <mxCell id="RrKAQk9WSgDsEkspCCAe-98" value="" style="group" parent="1" vertex="1" connectable="0">
          <mxGeometry x="360" y="240" width="220" height="100" as="geometry" />
        </mxCell>
        <mxCell id="RrKAQk9WSgDsEkspCCAe-1" value="" style="group" parent="RrKAQk9WSgDsEkspCCAe-98" vertex="1" connectable="0">
          <mxGeometry y="70" width="220" height="30" as="geometry" />
        </mxCell>
        <mxCell id="RrKAQk9WSgDsEkspCCAe-2" value="&lt;b&gt;&lt;font color=&quot;#ffffff&quot;&gt;Upstream exon&lt;/font&gt;&lt;/b&gt;" style="rounded=0;whiteSpace=wrap;html=1;fillColor=#3333FF;" parent="RrKAQk9WSgDsEkspCCAe-1" vertex="1">
          <mxGeometry width="110" height="30" as="geometry" />
        </mxCell>
        <mxCell id="RrKAQk9WSgDsEkspCCAe-3" value="&lt;b&gt;&lt;font color=&quot;#ffffff&quot;&gt;Downstream exon&lt;/font&gt;&lt;/b&gt;" style="rounded=0;whiteSpace=wrap;html=1;fillColor=#3333FF;" parent="RrKAQk9WSgDsEkspCCAe-1" vertex="1">
          <mxGeometry x="110" width="110" height="30" as="geometry" />
        </mxCell>
        <mxCell id="RrKAQk9WSgDsEkspCCAe-26" value="&lt;font color=&quot;#009900&quot; style=&quot;font-size: 19px&quot; face=&quot;Comic Sans MS&quot;&gt;S&lt;/font&gt;" style="text;html=1;strokeColor=none;fillColor=none;align=center;verticalAlign=middle;whiteSpace=wrap;rounded=0;" parent="RrKAQk9WSgDsEkspCCAe-98" vertex="1">
          <mxGeometry x="100" width="40" height="20" as="geometry" />
        </mxCell>
        <mxCell id="8OU9jWKdstNd1OK4Vplz-1" value="" style="endArrow=none;html=1;strokeWidth=2;fontSize=16;fontColor=#3333FF;strokeColor=#009900;" edge="1" parent="RrKAQk9WSgDsEkspCCAe-98">
          <mxGeometry width="50" height="50" relative="1" as="geometry">
            <mxPoint x="60" y="60" as="sourcePoint" />
            <mxPoint x="150" y="60" as="targetPoint" />
          </mxGeometry>
        </mxCell>
        <mxCell id="8OU9jWKdstNd1OK4Vplz-4" value="" style="endArrow=none;html=1;strokeWidth=2;fontSize=16;fontColor=#3333FF;strokeColor=#009900;" edge="1" parent="RrKAQk9WSgDsEkspCCAe-98">
          <mxGeometry width="50" height="50" relative="1" as="geometry">
            <mxPoint x="40" y="50" as="sourcePoint" />
            <mxPoint x="130" y="50" as="targetPoint" />
          </mxGeometry>
        </mxCell>
        <mxCell id="8OU9jWKdstNd1OK4Vplz-5" value="" style="endArrow=none;html=1;strokeWidth=2;fontSize=16;fontColor=#3333FF;strokeColor=#009900;" edge="1" parent="RrKAQk9WSgDsEkspCCAe-98">
          <mxGeometry width="50" height="50" relative="1" as="geometry">
            <mxPoint x="75" y="40" as="sourcePoint" />
            <mxPoint x="165" y="40" as="targetPoint" />
          </mxGeometry>
        </mxCell>
        <mxCell id="8OU9jWKdstNd1OK4Vplz-6" value="" style="endArrow=none;html=1;strokeWidth=2;fontSize=16;fontColor=#3333FF;strokeColor=#009900;" edge="1" parent="RrKAQk9WSgDsEkspCCAe-98">
          <mxGeometry width="50" height="50" relative="1" as="geometry">
            <mxPoint x="100" y="30" as="sourcePoint" />
            <mxPoint x="190" y="30" as="targetPoint" />
          </mxGeometry>
        </mxCell>
        <mxCell id="RrKAQk9WSgDsEkspCCAe-51" value="&lt;font style=&quot;font-size: 19px&quot; face=&quot;Comic Sans MS&quot; color=&quot;#3333ff&quot;&gt;L(S)&lt;/font&gt;" style="text;html=1;strokeColor=none;fillColor=none;align=center;verticalAlign=middle;whiteSpace=wrap;rounded=0;" parent="1" vertex="1">
          <mxGeometry x="600" y="465.5" width="40" height="20" as="geometry" />
        </mxCell>
        <mxCell id="8OU9jWKdstNd1OK4Vplz-35" value="" style="group" vertex="1" connectable="0" parent="1">
          <mxGeometry x="669" y="355" width="360" height="195" as="geometry" />
        </mxCell>
        <mxCell id="RrKAQk9WSgDsEkspCCAe-99" value="" style="group" parent="8OU9jWKdstNd1OK4Vplz-35" vertex="1" connectable="0">
          <mxGeometry y="35" width="310" height="160" as="geometry" />
        </mxCell>
        <mxCell id="RrKAQk9WSgDsEkspCCAe-73" value="" style="endArrow=none;html=1;strokeWidth=2;fontColor=#3333FF;strokeColor=#3333FF;" parent="RrKAQk9WSgDsEkspCCAe-99" edge="1">
          <mxGeometry width="50" height="50" relative="1" as="geometry">
            <mxPoint y="120" as="sourcePoint" />
            <mxPoint x="100" y="120" as="targetPoint" />
          </mxGeometry>
        </mxCell>
        <mxCell id="RrKAQk9WSgDsEkspCCAe-74" value="" style="endArrow=none;html=1;strokeWidth=2;strokeColor=#FF6666;" parent="RrKAQk9WSgDsEkspCCAe-99" edge="1">
          <mxGeometry width="50" height="50" relative="1" as="geometry">
            <mxPoint x="100" y="120" as="sourcePoint" />
            <mxPoint x="200" y="120" as="targetPoint" />
          </mxGeometry>
        </mxCell>
        <mxCell id="RrKAQk9WSgDsEkspCCAe-75" value="" style="endArrow=none;html=1;strokeWidth=2;strokeColor=#3333FF;" parent="RrKAQk9WSgDsEkspCCAe-99" edge="1">
          <mxGeometry width="50" height="50" relative="1" as="geometry">
            <mxPoint x="200" y="120" as="sourcePoint" />
            <mxPoint x="300" y="120" as="targetPoint" />
          </mxGeometry>
        </mxCell>
        <mxCell id="RrKAQk9WSgDsEkspCCAe-76" value="" style="endArrow=none;dashed=1;html=1;dashPattern=1 2;strokeWidth=2;fontSize=16;fontColor=#3333FF;strokeColor=#FF6666;" parent="RrKAQk9WSgDsEkspCCAe-99" edge="1">
          <mxGeometry width="50" height="50" relative="1" as="geometry">
            <mxPoint x="100" y="11" as="sourcePoint" />
            <mxPoint x="100" y="120" as="targetPoint" />
          </mxGeometry>
        </mxCell>
        <mxCell id="RrKAQk9WSgDsEkspCCAe-77" value="" style="endArrow=none;dashed=1;html=1;dashPattern=1 2;strokeWidth=2;fontSize=16;fontColor=#3333FF;strokeColor=#FF6666;" parent="RrKAQk9WSgDsEkspCCAe-99" edge="1">
          <mxGeometry width="50" height="50" relative="1" as="geometry">
            <mxPoint x="200" y="11" as="sourcePoint" />
            <mxPoint x="200" y="120" as="targetPoint" />
          </mxGeometry>
        </mxCell>
        <mxCell id="RrKAQk9WSgDsEkspCCAe-78" value="" style="endArrow=none;html=1;strokeColor=#3333FF;strokeWidth=2;fontSize=16;fontColor=#3333FF;" parent="RrKAQk9WSgDsEkspCCAe-99" edge="1">
          <mxGeometry width="50" height="50" relative="1" as="geometry">
            <mxPoint x="20" y="112" as="sourcePoint" />
            <mxPoint x="110" y="112" as="targetPoint" />
          </mxGeometry>
        </mxCell>
        <mxCell id="RrKAQk9WSgDsEkspCCAe-81" value="" style="endArrow=none;html=1;strokeWidth=2;strokeColor=#3333FF;" parent="RrKAQk9WSgDsEkspCCAe-99" edge="1">
          <mxGeometry width="50" height="50" relative="1" as="geometry">
            <mxPoint x="100" y="130" as="sourcePoint" />
            <mxPoint x="100" y="120" as="targetPoint" />
          </mxGeometry>
        </mxCell>
        <mxCell id="RrKAQk9WSgDsEkspCCAe-83" value="" style="endArrow=none;html=1;strokeWidth=2;strokeColor=#3333FF;" parent="RrKAQk9WSgDsEkspCCAe-99" edge="1">
          <mxGeometry width="50" height="50" relative="1" as="geometry">
            <mxPoint x="200" y="130" as="sourcePoint" />
            <mxPoint x="200" y="120" as="targetPoint" />
          </mxGeometry>
        </mxCell>
        <mxCell id="RrKAQk9WSgDsEkspCCAe-84" value="Junction" style="text;html=1;strokeColor=none;fillColor=none;align=center;verticalAlign=middle;whiteSpace=wrap;rounded=0;fontColor=#3333FF;fontSize=16;" parent="RrKAQk9WSgDsEkspCCAe-99" vertex="1">
          <mxGeometry x="80" y="140" width="40" height="20" as="geometry" />
        </mxCell>
        <mxCell id="RrKAQk9WSgDsEkspCCAe-85" value="Junction" style="text;html=1;strokeColor=none;fillColor=none;align=center;verticalAlign=middle;whiteSpace=wrap;rounded=0;fontColor=#3333FF;fontSize=16;" parent="RrKAQk9WSgDsEkspCCAe-99" vertex="1">
          <mxGeometry x="180" y="140" width="40" height="20" as="geometry" />
        </mxCell>
        <mxCell id="RrKAQk9WSgDsEkspCCAe-87" value="" style="endArrow=none;html=1;strokeColor=#3333FF;strokeWidth=2;fontSize=16;fontColor=#3333FF;" parent="RrKAQk9WSgDsEkspCCAe-99" edge="1">
          <mxGeometry width="50" height="50" relative="1" as="geometry">
            <mxPoint x="35" y="104" as="sourcePoint" />
            <mxPoint x="125" y="104" as="targetPoint" />
          </mxGeometry>
        </mxCell>
        <mxCell id="RrKAQk9WSgDsEkspCCAe-88" value="" style="endArrow=none;html=1;strokeColor=#3333FF;strokeWidth=2;fontSize=16;fontColor=#3333FF;" parent="RrKAQk9WSgDsEkspCCAe-99" edge="1">
          <mxGeometry width="50" height="50" relative="1" as="geometry">
            <mxPoint x="54.5" y="96" as="sourcePoint" />
            <mxPoint x="145.5" y="96" as="targetPoint" />
          </mxGeometry>
        </mxCell>
        <mxCell id="RrKAQk9WSgDsEkspCCAe-89" value="" style="endArrow=none;html=1;strokeColor=#3333FF;strokeWidth=2;fontSize=16;fontColor=#3333FF;" parent="RrKAQk9WSgDsEkspCCAe-99" edge="1">
          <mxGeometry width="50" height="50" relative="1" as="geometry">
            <mxPoint x="188" y="24" as="sourcePoint" />
            <mxPoint x="278" y="24" as="targetPoint" />
          </mxGeometry>
        </mxCell>
        <mxCell id="RrKAQk9WSgDsEkspCCAe-90" value="" style="endArrow=none;html=1;strokeColor=#3333FF;strokeWidth=2;fontSize=16;fontColor=#3333FF;" parent="RrKAQk9WSgDsEkspCCAe-99" edge="1">
          <mxGeometry width="50" height="50" relative="1" as="geometry">
            <mxPoint x="110.5" y="72" as="sourcePoint" />
            <mxPoint x="200.5" y="72" as="targetPoint" />
          </mxGeometry>
        </mxCell>
        <mxCell id="RrKAQk9WSgDsEkspCCAe-92" value="" style="endArrow=none;dashed=1;html=1;dashPattern=1 2;strokeWidth=2;fontSize=16;fontColor=#3333FF;strokeColor=#3333FF;" parent="RrKAQk9WSgDsEkspCCAe-99" edge="1">
          <mxGeometry width="50" height="50" relative="1" as="geometry">
            <mxPoint x="280" y="5" as="sourcePoint" />
            <mxPoint x="280" y="120" as="targetPoint" />
          </mxGeometry>
        </mxCell>
        <mxCell id="RrKAQk9WSgDsEkspCCAe-93" value="" style="endArrow=none;dashed=1;html=1;dashPattern=1 2;strokeWidth=2;fontSize=16;fontColor=#3333FF;strokeColor=#3333FF;" parent="RrKAQk9WSgDsEkspCCAe-99" edge="1">
          <mxGeometry width="50" height="50" relative="1" as="geometry">
            <mxPoint x="20" y="5" as="sourcePoint" />
            <mxPoint x="20" y="120" as="targetPoint" />
          </mxGeometry>
        </mxCell>
        <mxCell id="XnRIO4iFNnF-pJnEFTLa-11" value="" style="endArrow=none;dashed=1;html=1;dashPattern=1 2;strokeWidth=2;fontSize=16;fontColor=#3333FF;strokeColor=#FF6666;" parent="RrKAQk9WSgDsEkspCCAe-99" edge="1">
          <mxGeometry width="50" height="50" relative="1" as="geometry">
            <mxPoint x="189" y="11" as="sourcePoint" />
            <mxPoint x="189" y="61" as="targetPoint" />
          </mxGeometry>
        </mxCell>
        <mxCell id="XnRIO4iFNnF-pJnEFTLa-12" value="" style="shape=curlyBracket;whiteSpace=wrap;html=1;rounded=1;fillColor=none;fontSize=16;fontColor=#3333FF;rotation=90;" parent="RrKAQk9WSgDsEkspCCAe-99" vertex="1">
          <mxGeometry x="188" y="-4" width="12.5" height="12" as="geometry" />
        </mxCell>
        <mxCell id="8OU9jWKdstNd1OK4Vplz-18" value="" style="endArrow=none;dashed=1;html=1;dashPattern=1 2;strokeWidth=2;fontSize=16;fontColor=#3333FF;strokeColor=#FF6666;" edge="1" parent="RrKAQk9WSgDsEkspCCAe-99">
          <mxGeometry width="50" height="50" relative="1" as="geometry">
            <mxPoint x="110" y="11" as="sourcePoint" />
            <mxPoint x="110" y="111" as="targetPoint" />
          </mxGeometry>
        </mxCell>
        <mxCell id="8OU9jWKdstNd1OK4Vplz-19" value="" style="shape=curlyBracket;whiteSpace=wrap;html=1;rounded=1;fillColor=none;fontSize=16;fontColor=#3333FF;rotation=90;" vertex="1" parent="RrKAQk9WSgDsEkspCCAe-99">
          <mxGeometry x="99" y="-4" width="12.5" height="12" as="geometry" />
        </mxCell>
        <mxCell id="8OU9jWKdstNd1OK4Vplz-27" value="" style="endArrow=none;html=1;strokeColor=#3333FF;strokeWidth=2;fontSize=16;fontColor=#3333FF;" edge="1" parent="RrKAQk9WSgDsEkspCCAe-99">
          <mxGeometry width="50" height="50" relative="1" as="geometry">
            <mxPoint x="75" y="88" as="sourcePoint" />
            <mxPoint x="165" y="88" as="targetPoint" />
          </mxGeometry>
        </mxCell>
        <mxCell id="8OU9jWKdstNd1OK4Vplz-28" value="" style="endArrow=none;html=1;strokeColor=#3333FF;strokeWidth=2;fontSize=16;fontColor=#3333FF;" edge="1" parent="RrKAQk9WSgDsEkspCCAe-99">
          <mxGeometry width="50" height="50" relative="1" as="geometry">
            <mxPoint x="90" y="80" as="sourcePoint" />
            <mxPoint x="180" y="80" as="targetPoint" />
          </mxGeometry>
        </mxCell>
        <mxCell id="8OU9jWKdstNd1OK4Vplz-29" value="" style="endArrow=none;html=1;strokeColor=#3333FF;strokeWidth=2;fontSize=16;fontColor=#3333FF;" edge="1" parent="RrKAQk9WSgDsEkspCCAe-99">
          <mxGeometry width="50" height="50" relative="1" as="geometry">
            <mxPoint x="120" y="64" as="sourcePoint" />
            <mxPoint x="210" y="64" as="targetPoint" />
          </mxGeometry>
        </mxCell>
        <mxCell id="8OU9jWKdstNd1OK4Vplz-30" value="" style="endArrow=none;html=1;strokeColor=#3333FF;strokeWidth=2;fontSize=16;fontColor=#3333FF;" edge="1" parent="RrKAQk9WSgDsEkspCCAe-99">
          <mxGeometry width="50" height="50" relative="1" as="geometry">
            <mxPoint x="149.25" y="48" as="sourcePoint" />
            <mxPoint x="239.25" y="48" as="targetPoint" />
          </mxGeometry>
        </mxCell>
        <mxCell id="8OU9jWKdstNd1OK4Vplz-31" value="" style="endArrow=none;html=1;strokeColor=#3333FF;strokeWidth=2;fontSize=16;fontColor=#3333FF;" edge="1" parent="RrKAQk9WSgDsEkspCCAe-99">
          <mxGeometry width="50" height="50" relative="1" as="geometry">
            <mxPoint x="135" y="56" as="sourcePoint" />
            <mxPoint x="225" y="56" as="targetPoint" />
          </mxGeometry>
        </mxCell>
        <mxCell id="8OU9jWKdstNd1OK4Vplz-32" value="" style="endArrow=none;html=1;strokeColor=#3333FF;strokeWidth=2;fontSize=16;fontColor=#3333FF;" edge="1" parent="RrKAQk9WSgDsEkspCCAe-99">
          <mxGeometry width="50" height="50" relative="1" as="geometry">
            <mxPoint x="165" y="40" as="sourcePoint" />
            <mxPoint x="255" y="40" as="targetPoint" />
          </mxGeometry>
        </mxCell>
        <mxCell id="8OU9jWKdstNd1OK4Vplz-33" value="" style="endArrow=none;html=1;strokeColor=#3333FF;strokeWidth=2;fontSize=16;fontColor=#3333FF;" edge="1" parent="RrKAQk9WSgDsEkspCCAe-99">
          <mxGeometry width="50" height="50" relative="1" as="geometry">
            <mxPoint x="180" y="32" as="sourcePoint" />
            <mxPoint x="270" y="32" as="targetPoint" />
          </mxGeometry>
        </mxCell>
        <mxCell id="RrKAQk9WSgDsEkspCCAe-94" value="" style="shape=curlyBracket;whiteSpace=wrap;html=1;rounded=1;fillColor=none;fontSize=16;fontColor=#3333FF;rotation=-180;size=0.5;" parent="RrKAQk9WSgDsEkspCCAe-99" vertex="1">
          <mxGeometry x="280" y="22" width="30" height="95" as="geometry" />
        </mxCell>
        <mxCell id="8OU9jWKdstNd1OK4Vplz-20" value="&lt;span style=&quot;color: rgb(0, 0, 0); font-family: helvetica; font-size: 16px; font-style: normal; font-weight: normal; letter-spacing: normal; text-align: center; text-indent: 0px; text-transform: none; word-spacing: 0px; background-color: rgb(248, 249, 250); text-decoration: none; display: inline; float: none;&quot;&gt;ancher length&lt;/span&gt;" style="text;whiteSpace=wrap;html=1;" vertex="1" parent="8OU9jWKdstNd1OK4Vplz-35">
          <mxGeometry x="40" y="5" width="120" height="30" as="geometry" />
        </mxCell>
        <mxCell id="RrKAQk9WSgDsEkspCCAe-95" value="&lt;font style=&quot;font-size: 19px&quot; face=&quot;Comic Sans MS&quot; color=&quot;#3333ff&quot;&gt;L(I)&lt;/font&gt;" style="text;html=1;strokeColor=none;fillColor=none;align=center;verticalAlign=middle;whiteSpace=wrap;rounded=0;" parent="8OU9jWKdstNd1OK4Vplz-35" vertex="1">
          <mxGeometry x="320" y="92.5" width="40" height="20" as="geometry" />
        </mxCell>
        <mxCell id="XnRIO4iFNnF-pJnEFTLa-13" value="&lt;font style=&quot;font-size: 16px&quot;&gt;ancher length&lt;/font&gt;" style="text;html=1;strokeColor=none;fillColor=none;align=center;verticalAlign=middle;whiteSpace=wrap;rounded=0;" parent="8OU9jWKdstNd1OK4Vplz-35" vertex="1">
          <mxGeometry x="151" y="11" width="110.75" height="20" as="geometry" />
        </mxCell>
      </root>
    </mxGraphModel>
  </diagram>
</mxfile>
